Coordinates
version=1
nRows=44
nColumns=19
inDegrees=yes

Units are S.I. units (second, meters, Newtons, ...)
Angles are in degrees.

endheader
time	1_Force_X	1_Force_Y	1_Force_Z	1_Moment_X	1_Moment_Y	1_Moment_Z	1_COP_X	1_COP_Y	1_COP_Z	2_Force_X	2_Force_Y	2_Force_Z	2_Moment_X	2_Moment_Y	2_Moment_Z	2_COP_X	2_COP_Y	2_COP_Z
1.1050	56.645	-13.041	9.683	-0.380	0.000	0.485	-5.536	2.101	0.904	-0.217	0.000	0.250	0.00000	4.09422	0.00000	0.00000	28.57507	0.00000
1.1075	56.206	-14.083	9.333	-0.379	0.000	0.485	-5.274	2.097	0.731	-0.217	0.000	0.250	0.00000	3.94899	0.00000	0.00000	27.15200	0.00000
1.1100	55.945	-13.916	8.801	-0.383	0.000	0.493	-5.357	2.953	0.077	-0.216	0.000	0.250	0.00000	3.04247	0.00000	0.00000	19.52865	0.00000
1.1125	55.020	-12.690	8.847	-0.392	0.000	0.490	-5.229	2.606	0.206	-0.215	0.000	0.250	0.00000	3.20906	0.00000	0.00000	21.16784	0.00000
1.1150	54.402	-13.363	9.609	-0.387	0.000	0.493	-4.094	3.296	0.478	-0.219	0.000	0.248	0.00000	3.16075	0.00000	0.00000	15.34084	0.00000
1.1175	51.631	-13.171	9.575	-0.393	0.000	0.490	-5.884	3.297	0.380	-0.217	0.000	0.248	0.00000	2.98013	0.00000	0.00000	19.60759	0.00000
1.1200	52.106	-12.477	9.443	-0.387	0.000	0.487	-5.228	3.639	0.297	-0.219	0.000	0.247	0.00000	3.54000	0.00000	0.00000	16.47902	0.00000
1.1225	53.081	-11.628	9.209	-0.400	0.000	0.484	-5.225	3.461	-0.358	-0.217	0.000	0.250	0.00000	3.59269	0.00000	0.00000	16.05157	0.00000
1.1250	52.727	-14.929	8.289	-0.386	0.000	0.485	-4.706	2.606	0.384	-0.217	0.000	0.249	0.00000	3.46659	0.00000	0.00000	19.82386	0.00000
1.1275	51.059	-14.738	9.181	-0.383	0.000	0.490	-4.794	2.092	0.470	-0.217	0.000	0.250	0.00000	2.93270	0.00000	0.00000	24.36372	0.00000
1.1300	50.124	-12.471	8.212	-0.399	0.000	0.486	-5.402	3.114	-0.363	-0.215	0.000	0.248	0.00000	3.32044	0.00000	0.00000	17.49869	0.00000
1.1325	50.439	-13.185	8.117	-0.393	0.000	0.489	-4.699	2.252	-0.839	-0.215	0.000	0.254	0.00000	2.80199	0.00000	0.00000	19.28229	0.00000
1.1350	49.418	-11.790	7.589	-0.398	0.000	0.481	-4.925	2.765	-0.097	-0.216	0.000	0.251	0.00000	3.46085	0.00000	0.00000	18.47626	0.00000
1.1375	48.545	-14.041	7.376	-0.396	0.000	0.490	-4.835	2.595	-0.402	-0.215	0.000	0.252	0.00000	2.51276	0.00000	0.00000	18.58874	0.00000
1.1400	49.248	-14.233	6.618	-0.395	0.000	0.487	-4.531	2.588	-0.533	-0.215	0.000	0.252	0.00000	2.65991	0.00000	0.00000	17.12198	0.00000
1.1425	48.494	-13.187	5.825	-0.403	0.000	0.487	-4.658	2.071	-1.015	-0.214	0.000	0.253	0.00000	2.71604	0.00000	0.00000	19.58487	0.00000
1.1450	47.482	-15.959	5.967	-0.385	0.000	0.486	-4.313	1.387	-0.404	-0.215	0.000	0.253	0.00000	2.70305	0.00000	0.00000	27.86193	0.00000
1.1475	47.043	-15.249	6.678	-0.390	0.000	0.486	-5.097	2.077	-0.538	-0.215	0.000	0.252	0.00000	2.78542	0.00000	0.00000	22.65688	0.00000
1.1500	48.189	-12.999	7.198	-0.401	0.000	0.483	-4.530	3.277	-0.531	-0.216	0.000	0.250	0.00000	3.02443	0.00000	0.00000	14.31013	0.00000
1.1525	48.324	-13.867	6.978	-0.401	0.000	0.490	-4.266	2.929	-0.922	-0.217	0.000	0.253	0.00000	2.47824	0.00000	0.00000	14.12768	0.00000
1.1550	47.615	-14.202	6.853	-0.400	0.000	0.488	-5.098	3.109	-0.317	-0.216	0.000	0.249	0.00000	2.71801	0.00000	0.00000	16.71573	0.00000
1.1575	47.581	-15.755	7.698	-0.396	0.000	0.499	-5.056	3.108	-0.230	-0.216	0.000	0.248	0.00000	1.91413	0.00000	0.00000	16.70223	0.00000
1.1600	47.745	-13.682	7.117	-0.396	0.000	0.484	-5.058	2.939	0.075	-0.214	0.000	0.249	0.00000	3.06363	0.00000	0.00000	18.18003	0.00000
1.1625	47.972	-13.700	7.065	-0.394	0.000	0.486	-4.967	3.111	-0.360	-0.214	0.000	0.249	0.00000	2.65390	0.00000	0.00000	16.38234	0.00000
1.1650	48.449	-13.707	6.753	-0.391	0.000	0.473	-4.843	2.254	0.469	-0.213	0.000	0.251	0.00000	3.83468	0.00000	0.00000	22.97091	0.00000
1.1675	48.630	-13.533	6.973	-0.395	0.000	0.479	-4.443	2.258	-0.053	-0.213	0.000	0.250	0.00000	3.27337	0.00000	0.00000	20.12851	0.00000
1.1700	47.963	-15.091	5.921	-0.388	0.000	0.485	-4.882	2.598	0.031	-0.214	0.000	0.248	0.00000	2.95253	0.00000	0.00000	19.29528	0.00000
1.1725	47.391	-14.389	6.541	-0.388	0.000	0.481	-5.103	2.774	0.601	-0.216	0.000	0.250	0.00000	3.16125	0.00000	0.00000	20.53824	0.00000
1.1750	47.301	-13.701	6.361	-0.389	0.000	0.475	-5.060	2.256	0.465	-0.214	0.000	0.248	0.00000	3.58112	0.00000	0.00000	23.32957	0.00000
1.1775	46.994	-12.484	6.183	-0.398	0.000	0.480	-4.620	3.624	-0.272	-0.215	0.000	0.246	0.00000	3.08924	0.00000	0.00000	13.69804	0.00000
1.1800	46.822	-13.698	6.142	-0.394	0.000	0.486	-4.749	4.829	-0.312	-0.217	0.000	0.245	0.00000	2.56907	0.00000	0.00000	11.48506	0.00000
1.1825	46.024	-14.048	5.525	-0.391	0.000	0.477	-4.444	3.801	-0.053	-0.216	0.000	0.244	0.00000	3.17648	0.00000	0.00000	13.18710	0.00000
1.1850	45.802	-13.359	5.259	-0.390	0.000	0.479	-4.487	3.111	-0.271	-0.215	0.000	0.248	0.00000	2.98006	0.00000	0.00000	15.18968	0.00000
1.1875	45.844	-13.528	4.643	-0.396	0.000	0.486	-4.571	3.102	-1.147	-0.213	0.000	0.248	0.00000	2.58718	0.00000	0.00000	13.41091	0.00000
1.1900	45.492	-13.362	4.860	-0.391	0.000	0.474	-4.569	0.869	-1.237	-0.212	0.000	0.255	0.00000	3.29623	0.00000	0.00000	38.67794	0.00000
1.1925	45.096	-12.312	4.553	-0.402	0.000	0.485	-5.005	2.757	-1.365	-0.214	0.000	0.253	0.00000	2.49562	0.00000	0.00000	15.93645	0.00000
1.1950	45.544	-14.385	5.266	-0.398	0.000	0.492	-4.874	3.792	-1.144	-0.216	0.000	0.249	0.00000	2.05132	0.00000	0.00000	12.65642	0.00000
1.1975	45.897	-15.091	5.305	-0.395	0.000	0.479	-4.835	2.767	-0.316	-0.217	0.000	0.250	0.00000	2.86012	0.00000	0.00000	17.68168	0.00000
1.2000	46.467	-15.265	5.305	-0.391	0.000	0.482	-4.793	2.426	0.035	-0.218	0.000	0.251	0.00000	2.84521	0.00000	0.00000	20.52707	0.00000
1.2025	46.779	-15.266	5.834	-0.390	0.000	0.483	-5.057	1.568	0.248	-0.216	0.000	0.252	0.00000	2.76181	0.00000	0.00000	31.60137	0.00000
1.2050	47.173	-13.527	5.698	-0.401	0.000	0.486	-5.231	3.282	-0.056	-0.217	0.000	0.247	0.00000	2.63193	0.00000	0.00000	16.77531	0.00000
1.2075	47.485	-13.352	6.315	-0.403	0.000	0.484	-4.751	3.281	-0.053	-0.217	0.000	0.248	0.00000	2.76430	0.00000	0.00000	15.60762	0.00000
1.2100	47.088	-14.222	5.743	-0.401	0.000	0.488	-4.795	3.624	-0.051	-0.217	0.000	0.249	0.00000	2.42451	0.00000	0.00000	14.73474	0.00000
1.2125	47.392	-13.363	5.297	-0.401	0.000	0.486	-4.531	3.276	-0.489	-0.216	0.000	0.249	0.00000	2.59687	0.00000	0.00000	14.22112	0.00000
